<?xml version="1.0" encoding="UTF-8"?>
<!DOCTYPE svg PUBLIC "-//W3C//DTD SVG 1.1//EN" "http://www.w3.org/Graphics/SVG/1.1/DTD/svg11.dtd">
<!-- Creator: CorelDRAW 2019 (64-Bit) -->
<svg xmlns="http://www.w3.org/2000/svg" xml:space="preserve" width="1.24272in" height="0.986677in" version="1.1" style="shape-rendering:geometricPrecision; text-rendering:geometricPrecision; image-rendering:optimizeQuality; fill-rule:evenodd; clip-rule:evenodd"
viewBox="0 0 126.76 100.64"
 xmlns:xlink="http://www.w3.org/1999/xlink"
 xmlns:xodm="http://www.corel.com/coreldraw/odm/2003">
 <defs>
  <style type="text/css">
   <![CDATA[
    .fil0 {fill:none}
    .fil1 {fill:#FDB92E}
   ]]>
  </style>
 </defs>
 <g id="Layer_x0020_1">
  <metadata id="CorelCorpID_0Corel-Layer"/>
  <g id="_2120228657952">
   <path class="fil0" d="M66.33 35.11l26.84 0c7.03,0 12.78,5.75 12.78,12.78 0,10.45 -8.55,19.01 -19,19.01l-25.93 0"/>
   <g>
    <path class="fil0" d="M4.5 38.17l33.08 0m24.88 0l29.47 0c5.54,0 10.07,4.53 10.07,10.07 0,8.23 -6.74,14.97 -14.97,14.97l-28.76 0m-24.88 0l-33.39 0"/>
    <line class="fil0" x1="4.5" y1="38.17" x2="-0" y2= "63.2" />
    <path class="fil0" d="M37.58 38.17l6.39 -38.17 24.88 0 -6.39 38.17m-4.19 25.04l-6.27 37.44 -24.88 0 6.27 -37.44"/>
   </g>
   <g>
    <path class="fil0" d="M69.95 13.47l22.63 0c18.8,0 34.18,15.38 34.18,34.18 0,21.06 -17.23,38.28 -38.28,38.28l-11.44 0"/>
    <path class="fil0" d="M89.13 13.47l-19.18 0m4.64 87.17l2.45 -14.71"/>
   </g>
   <path class="fil0" d="M69.95 13.47l-3.62 21.64m-5.32 31.78l-5.65 33.75"/>
   <path class="fil0" d="M27.12 100.64l24.88 0m3.35 0l19.23 0"/>
  </g>
  <path class="fil1" d="M27.12 100.64l24.88 0 6.27 -37.44 28.76 0c8.23,0 14.97,-6.74 14.97,-14.97 0,-5.54 -4.53,-10.07 -10.07,-10.07l-29.47 0 6.39 -38.17 -24.88 0 -6.39 38.17 -33.08 0 -4.5 25.04 33.39 0 -6.27 37.44z"/>
  <path class="fil1" d="M61.01 66.9l-5.65 33.75 19.23 0 2.45 -14.71 11.44 0c21.06,0 38.28,-17.23 38.28,-38.28 0,-18.8 -15.38,-34.18 -34.18,-34.18l-22.63 0 -3.62 21.64 26.84 0c7.03,0 12.78,5.75 12.78,12.78 0,10.45 -8.55,19.01 -19,19.01l-25.93 0z"/>
 </g>
</svg>
