<?xml version="1.0" encoding="UTF-8"?>
<!DOCTYPE svg PUBLIC "-//W3C//DTD SVG 1.1//EN" "http://www.w3.org/Graphics/SVG/1.1/DTD/svg11.dtd">
<!-- Creator: CorelDRAW 2019 (64-Bit) -->
<svg xmlns="http://www.w3.org/2000/svg" xml:space="preserve" width="4.83597in" height="0.986677in" version="1.1" style="shape-rendering:geometricPrecision; text-rendering:geometricPrecision; image-rendering:optimizeQuality; fill-rule:evenodd; clip-rule:evenodd"
viewBox="0 0 704.69 143.78"
 xmlns:xlink="http://www.w3.org/1999/xlink"
 xmlns:xodm="http://www.corel.com/coreldraw/odm/2003">
 <defs>
  <style type="text/css">
   <![CDATA[
    .fil0 {fill:none}
    .fil1 {fill:#FDB92E}
   ]]>
  </style>
 </defs>
 <g id="Layer_x0020_1">
  <metadata id="CorelCorpID_0Corel-Layer"/>
  <g id="_2120312896672">
   <path class="fil0" d="M94.75 50.16l38.34 0c10.04,0 18.26,8.21 18.26,18.25 0,14.93 -12.22,27.15 -27.15,27.15l-37.04 0"/>
   <g>
    <path class="fil0" d="M6.44 54.52l47.25 0m35.55 0l42.1 0c7.91,0 14.38,6.47 14.38,14.38 0,11.76 -9.62,21.39 -21.39,21.39l-41.08 0m-35.55 0l-47.7 0"/>
    <line class="fil0" x1="6.44" y1="54.52" x2="-0" y2= "90.29" />
    <path class="fil0" d="M53.69 54.52l9.13 -54.52 35.55 0 -9.13 54.52m-5.99 35.77l-8.95 53.49 -35.55 0 8.95 -53.49"/>
   </g>
   <g>
    <path class="fil0" d="M99.93 19.25l32.33 0c26.86,0 48.83,21.97 48.83,48.83 0,30.08 -24.61,54.69 -54.69,54.69l-16.34 0"/>
    <path class="fil0" d="M127.32 19.25l-27.4 0m6.63 124.53l3.5 -21.01"/>
   </g>
   <path class="fil0" d="M99.93 19.25l-5.17 30.91m-7.6 45.41l-8.07 48.21"/>
   <path class="fil0" d="M38.75 143.78l35.55 0m4.79 0l27.47 0"/>
  </g>
  <path class="fil1" d="M38.75 143.78l35.55 0 8.95 -53.49 41.08 0c11.76,0 21.39,-9.62 21.39,-21.39 0,-7.91 -6.47,-14.38 -14.38,-14.38l-42.1 0 9.13 -54.52 -35.55 0 -9.13 54.52 -47.25 0 -6.44 35.77 47.7 0 -8.95 53.49z"/>
  <path class="fil1" d="M87.15 95.57l-8.07 48.21 27.47 0 3.5 -21.01 16.34 0c30.08,0 54.69,-24.61 54.69,-54.69 0,-26.86 -21.97,-48.83 -48.83,-48.83l-32.33 0 -5.17 30.91 38.34 0c10.04,0 18.26,8.21 18.26,18.25 0,14.93 -12.22,27.15 -27.15,27.15l-37.04 0z"/>
  <g id="_2120312846304">
   <path class="fil1" d="M264.2 33.67l0 -4.71c0,-6.31 -5.16,-11.47 -11.47,-11.47l-47.72 0 -8.16 54.4 10.69 0 2.98 -19.86 35.33 0c10.1,0 18.36,-8.26 18.36,-18.36zm-15.17 -8.68c3.08,0 5.59,2.52 5.59,5.59l0 3.68c0,5.11 -4.18,9.29 -9.29,9.29l-33.54 0 2.79 -18.56 34.46 0z"/>
   <polygon class="fil1" points="272.4,17.49 262.68,71.89 273.78,71.89 283.5,17.49 "/>
   <path class="fil1" d="M306.18 17.49c-9.47,0 -17.22,7.75 -17.22,17.22 0,6.6 5.4,12 12,12l38.16 0c2.25,0 4.08,1.84 4.08,4.08l0 3.48c0,5.15 -4.21,9.37 -9.37,9.37l-47.68 0 -1.47 8.25 48.41 0c11.36,0 20.65,-9.29 20.65,-20.65l0 -1.31c0,-6.31 -5.16,-11.47 -11.47,-11.47l-37.69 0c-2.94,0 -5.34,-2.4 -5.34,-5.34 0,-3.5 2.37,-6.47 5.59,-7.37l50.29 0 1.47 -8.25 -50.42 0z"/>
   <polygon class="fil1" points="368.05,17.49 358.33,71.89 369.43,71.89 374.04,46.06 417.41,46.06 412.79,71.89 423.89,71.89 433.61,17.49 422.51,17.49 418.71,38.76 375.35,38.76 379.14,17.49 "/>
   <polygon class="fil1" points="442.59,17.49 432.87,71.89 439.13,71.89 488.16,71.89 489.71,63.22 445.52,63.22 448.45,46.82 490.92,46.82 492.47,38.14 450,38.14 452.14,26.17 496.33,26.17 497.88,17.49 453.69,17.49 "/>
   <polygon class="fil1" points="502.19,17.49 530.52,48.96 526.43,71.89 537.53,71.89 541.56,49.29 582.49,17.49 568.98,17.99 537.57,42.37 515.56,17.49 "/>
   <polygon class="fil1" points="601.28,27.48 621.01,71.89 632.3,71.89 607.35,17.49 599.48,17.49 551.95,71.89 563.24,71.89 "/>
   <path class="fil1" d="M457.01 88.75l-50.42 0c-9.47,0 -17.22,7.75 -17.22,17.22 0,6.6 5.4,12 12,12l38.16 0c2.25,0 4.08,1.84 4.08,4.08l0 3.48c0,5.15 -4.21,9.37 -9.37,9.37l-47.68 0 -1.47 8.25 48.41 0c11.36,0 20.65,-9.29 20.65,-20.65l0 -1.31c0,-6.31 -5.16,-11.47 -11.47,-11.47l-37.69 0c-2.94,0 -5.34,-2.4 -5.34,-5.34 0,-3.5 2.37,-6.47 5.59,-7.37l50.29 0 1.47 -8.25z"/>
   <path class="fil1" d="M378.84 130.53l7.48 -41.15 -10.44 0 -5.85 38.48c-0.67,4.43 -4.85,8.05 -9.28,8.05l-32.61 0c-3.88,0 -6.58,-3.18 -5.99,-7.06l6 -39.47 -7.82 0 -7.69 42.3c-1.15,6.31 3.08,11.47 9.39,11.47l41.88 0c6.94,0 13.65,-5.68 14.92,-12.62z"/>
   <polygon class="fil1" points="303.5,135.22 260.7,135.22 269,88.75 257.9,88.75 248.19,143.14 301.88,143.19 "/>
   <path class="fil1" d="M232.33 123.91c10.1,0 18.36,-8.26 18.36,-18.36l0 -4.71c0,-6.31 -5.16,-11.47 -11.47,-11.47l-47.72 0 -8.16 54.4 10.69 0 2.98 -19.86 35.33 0zm3.18 -27.04c3.08,0 5.59,2.52 5.59,5.59l0 3.68c0,5.11 -4.18,9.29 -9.29,9.29l-33.54 0 2.79 -18.56 34.46 0z"/>
   <path class="fil1" d="M651 52.03l29.31 0 6.36 19.86 12.14 0 -7.86 -20.46c7.88,-2.06 13.74,-9.26 13.74,-17.77l0 -4.71c0,-6.31 -5.16,-11.47 -11.47,-11.47l-47.72 0 -8.16 54.4 10.69 0 2.98 -19.86zm34.81 -8.47l-33.54 0 2.79 -18.56 34.46 0c3.08,0 5.59,2.52 5.59,5.59l0 3.68c0,5.11 -4.18,9.29 -9.29,9.29z"/>
  </g>
 </g>
</svg>
