<?xml version="1.0" encoding="UTF-8"?>
<!DOCTYPE svg PUBLIC "-//W3C//DTD SVG 1.1//EN" "http://www.w3.org/Graphics/SVG/1.1/DTD/svg11.dtd">
<!-- Creator: CorelDRAW 2019 (64-Bit) -->
<svg xmlns="http://www.w3.org/2000/svg" xml:space="preserve" width="4.84162in" height="0.986677in" version="1.1" style="shape-rendering:geometricPrecision; text-rendering:geometricPrecision; image-rendering:optimizeQuality; fill-rule:evenodd; clip-rule:evenodd"
viewBox="0 0 703.85 143.44"
 xmlns:xlink="http://www.w3.org/1999/xlink"
 xmlns:xodm="http://www.corel.com/coreldraw/odm/2003">
 <defs>
  <style type="text/css">
   <![CDATA[
    .fil1 {fill:none}
    .fil2 {fill:#FDB92E}
    .fil0 {fill:#3A4385}
   ]]>
  </style>
 </defs>
 <g id="Layer_x0020_1">
  <metadata id="CorelCorpID_0Corel-Layer"/>
  <g id="_2120371143872">
   <path class="fil0" d="M264.4 33.59l0 -4.69c0,-6.3 -5.15,-11.45 -11.45,-11.45l-47.61 0 -8.14 54.27 10.67 0 2.97 -19.82 35.25 0c10.07,0 18.31,-8.24 18.31,-18.31zm-15.14 -8.66c3.07,0 5.58,2.51 5.58,5.58l0 3.67c0,5.1 -4.17,9.27 -9.27,9.27l-33.46 0 2.78 -18.52 34.38 0z"/>
   <polygon class="fil0" points="272.58,17.45 262.88,71.72 273.96,71.72 283.65,17.45 "/>
   <path class="fil0" d="M306.28 17.45c-9.45,0 -17.18,7.73 -17.18,17.18 0,6.59 5.39,11.97 11.97,11.97l38.07 0c2.24,0 4.07,1.83 4.07,4.07l0 3.47c0,5.14 -4.2,9.34 -9.34,9.34l-47.56 0 -1.47 8.23 48.3 0c11.33,0 20.6,-9.27 20.6,-20.6l0 -1.31c0,-6.3 -5.15,-11.45 -11.45,-11.45l-37.6 0c-2.93,0 -5.33,-2.4 -5.33,-5.33 0,-3.49 2.37,-6.45 5.58,-7.36l50.17 0 1.47 -8.23 -50.3 0z"/>
   <polygon class="fil0" points="368,17.45 358.31,71.72 369.38,71.72 373.98,45.95 417.24,45.95 412.64,71.72 423.71,71.72 433.41,17.45 422.33,17.45 418.54,38.67 375.28,38.67 379.07,17.45 "/>
   <polygon class="fil0" points="442.37,17.45 432.67,71.72 438.92,71.72 487.83,71.72 489.38,63.07 445.29,63.07 448.21,46.71 490.58,46.71 492.13,38.06 449.76,38.06 451.89,26.1 495.98,26.1 497.52,17.45 453.44,17.45 "/>
   <polygon class="fil0" points="501.82,17.45 530.09,48.85 526.01,71.72 537.08,71.72 541.11,49.18 581.94,17.45 568.45,17.95 537.13,42.27 515.17,17.45 "/>
   <polygon class="fil0" points="600.68,27.41 620.37,71.72 631.63,71.72 606.74,17.45 598.88,17.45 551.47,71.72 562.73,71.72 "/>
   <path class="fil0" d="M456.75 88.54l-50.3 0c-9.45,0 -17.18,7.73 -17.18,17.18 0,6.59 5.39,11.97 11.97,11.97l38.07 0c2.24,0 4.07,1.83 4.07,4.07l0 3.47c0,5.14 -4.2,9.34 -9.34,9.34l-47.56 0 -1.47 8.23 48.3 0c11.33,0 20.6,-9.27 20.6,-20.6l0 -1.31c0,-6.3 -5.15,-11.45 -11.45,-11.45l-37.6 0c-2.93,0 -5.33,-2.4 -5.33,-5.33 0,-3.49 2.37,-6.45 5.58,-7.36l50.17 0 1.47 -8.23z"/>
   <path class="fil0" d="M378.76 130.22l7.46 -41.06 -10.41 0 -5.83 38.39c-0.67,4.42 -4.84,8.03 -9.25,8.03l-32.53 0c-3.87,0 -6.56,-3.17 -5.97,-7.04l5.98 -39.38 -7.8 0 -7.67 42.2c-1.14,6.3 3.07,11.45 9.37,11.45l41.78 0c6.93,0 13.62,-5.67 14.88,-12.59z"/>
   <polygon class="fil0" points="303.6,134.9 260.91,134.9 269.19,88.54 258.12,88.54 248.42,142.81 301.99,142.85 "/>
   <path class="fil0" d="M232.6 123.62c10.07,0 18.31,-8.24 18.31,-18.31l0 -4.69c0,-6.3 -5.15,-11.45 -11.45,-11.45l-47.61 0 -8.14 54.27 10.67 0 2.97 -19.82 35.25 0zm3.18 -26.97c3.07,0 5.58,2.51 5.58,5.58l0 3.67c0,5.1 -4.17,9.27 -9.27,9.27l-33.46 0 2.78 -18.52 34.38 0z"/>
   <path class="fil0" d="M650.29 51.91l29.24 0 6.34 19.82 12.11 0 -7.84 -20.41c7.86,-2.06 13.71,-9.24 13.71,-17.72l0 -4.69c0,-6.3 -5.15,-11.45 -11.45,-11.45l-47.61 0 -8.14 54.27 10.67 0 2.97 -19.82zm34.73 -8.45l-33.46 0 2.78 -18.52 34.38 0c3.07,0 5.58,2.51 5.58,5.58l0 3.67c0,5.1 -4.17,9.27 -9.27,9.27z"/>
  </g>
  <g id="_2120371139776">
   <g>
    <path class="fil1" d="M94.53 50.04l38.25 0c10.02,0 18.21,8.2 18.21,18.21 0,14.9 -12.19,27.09 -27.09,27.09l-36.96 0"/>
    <g>
     <path class="fil1" d="M6.42 54.4l47.14 0m35.46 0l42 0c7.89,0 14.35,6.46 14.35,14.35 0,11.74 -9.6,21.34 -21.34,21.34l-40.99 0m-35.46 0l-47.59 0"/>
     <line class="fil1" x1="6.42" y1="54.4" x2="-0" y2= "90.08" />
     <path class="fil1" d="M53.56 54.4l9.1 -54.4 35.46 0 -9.1 54.4m-5.97 35.68l-8.93 53.36 -35.46 0 8.93 -53.36"/>
    </g>
    <g>
     <path class="fil1" d="M99.69 19.2l32.26 0c26.79,0 48.71,21.92 48.71,48.71 0,30.01 -24.55,54.56 -54.56,54.56l-16.31 0"/>
     <path class="fil1" d="M127.02 19.2l-27.33 0m6.61 124.23l3.5 -20.96"/>
    </g>
    <path class="fil1" d="M99.69 19.2l-5.16 30.84m-7.58 45.3l-8.05 48.1"/>
    <path class="fil1" d="M38.66 143.44l35.46 0m4.78 0l27.4 0"/>
   </g>
   <path class="fil2" d="M38.66 143.44l35.46 0 8.93 -53.36 40.99 0c11.73,0 21.34,-9.6 21.34,-21.34 0,-7.89 -6.46,-14.35 -14.35,-14.35l-42 0 9.1 -54.4 -35.46 0 -9.1 54.4 -47.14 0 -6.42 35.68 47.59 0 -8.93 53.36z"/>
   <path class="fil0" d="M86.95 95.34l-8.05 48.1 27.4 0 3.5 -20.96 16.31 0c30.01,0 54.56,-24.55 54.56,-54.56 0,-26.79 -21.92,-48.71 -48.71,-48.71l-32.26 0 -5.16 30.84 38.25 0c10.02,0 18.21,8.2 18.21,18.21 0,14.9 -12.19,27.09 -27.09,27.09l-36.96 0z"/>
  </g>
 </g>
</svg>
