<?xml version="1.0"?>
<svg xmlns="http://www.w3.org/2000/svg" id="Capa_1" enable-background="new 0 0 512 512" height="512px" viewBox="0 0 512 512" width="512px"><g><g><path d="m357.6 256.808c0-56.014-45.584-101.584-101.614-101.584-56.014 0-101.585 45.571-101.585 101.584 0 56.029 45.571 101.612 101.585 101.612 56.03 0 101.614-45.583 101.614-101.612zm-183.2 0c0-44.986 36.599-81.584 81.585-81.584 45.002 0 81.614 36.599 81.614 81.584 0 45.001-36.612 81.612-81.614 81.612-44.985 0-81.585-36.611-81.585-81.612z" data-original="#000000" class="active-path" data-old_color="#000000" fill="#FFFFFF"/><path d="m490.032 288.357v-54.311c0-62.544-24.344-121.317-68.548-165.492-.001-.001-.001-.001-.002-.002l-.001-.001-.001-.001c-32.602-32.601-73.613-54.676-118.598-63.838-5.409-1.103-10.693 2.392-11.794 7.803-1.102 5.412 2.391 10.692 7.803 11.794 41.127 8.377 78.627 28.564 108.455 58.39l.006.006c3.914 3.906 6.071 9.139 6.075 14.736.003 5.611-2.158 10.865-6.077 14.783-8.149 8.129-21.407 8.129-29.548.008-67.168-67.167-176.46-67.167-243.622-.008-8.149 8.13-21.408 8.129-29.54.017-8.139-8.158-8.142-21.412-.008-29.546 29.813-29.812 67.314-50.001 108.452-58.386 5.412-1.103 8.904-6.384 7.802-11.795-1.103-5.412-6.382-8.908-11.796-7.801-44.993 9.17-86.004 31.246-118.6 63.84-.006.006-.012.013-.018.019-44.194 44.202-68.532 102.967-68.532 165.474v54.314c-12.727 4.211-21.94 16.223-21.94 30.354v69.305c0 17.627 14.328 31.968 31.94 31.968h35.08c6.048 11.053 17.787 18.566 31.249 18.566 19.628 0 35.597-15.968 35.597-35.596v-99.181c0-19.627-15.969-35.596-35.597-35.596-13.463 0-25.202 7.513-31.249 18.566h-25.08v-52.7c0-44.707 13.614-87.319 38.879-123.106 1.959 5.641 5.184 10.939 9.678 15.443 15.938 15.899 41.87 15.899 57.815-.008 59.371-59.37 155.974-59.371 215.355.008 7.967 7.949 18.433 11.924 28.9 11.924 10.47 0 20.941-3.977 28.915-11.932 4.417-4.417 7.69-9.681 9.683-15.432 25.257 35.771 38.867 78.382 38.867 123.103v52.7h-25.08c-6.048-11.053-17.787-18.566-31.249-18.566-19.628 0-35.597 15.968-35.597 35.596v99.181c0 19.627 15.969 35.596 35.597 35.596 13.463 0 25.202-7.513 31.249-18.566h25.08v31.611c0 9.163-7.441 16.617-16.588 16.617h-146.309c-4.273-13.761-17.123-23.782-32.271-23.782h-39.401c-18.627 0-33.782 15.155-33.782 33.782s15.155 33.782 33.782 33.782h39.401c15.147 0 27.998-10.021 32.271-23.782h146.308c20.175 0 36.588-16.426 36.588-36.617v-33.221c12.744-4.209 21.969-16.223 21.969-30.358v-69.305c0-14.135-9.225-26.149-21.968-30.357zm-470.032 99.662v-69.305c0-6.599 5.356-11.968 11.94-11.968h30.733v93.241h-30.733c-6.584 0-11.94-5.369-11.94-11.968zm78.269-99.839c8.6 0 15.597 6.996 15.597 15.596v99.181c0 8.6-6.997 15.596-15.597 15.596s-15.596-6.996-15.596-15.596v-99.181c0-8.599 6.996-15.596 15.596-15.596zm176.595 203.816h-39.401c-7.6 0-13.782-6.183-13.782-13.782 0-7.6 6.183-13.782 13.782-13.782h39.401c7.6 0 13.782 6.183 13.782 13.782 0 7.6-6.182 13.782-13.782 13.782zm138.839-73.443c-8.6 0-15.597-6.996-15.597-15.596v-99.181c0-8.6 6.997-15.596 15.597-15.596s15.596 6.996 15.596 15.596v99.181c0 8.6-6.997 15.596-15.596 15.596zm78.297-30.534c0 6.599-5.369 11.968-11.968 11.968h-30.733v-93.241h30.733c6.599 0 11.968 5.369 11.968 11.968z" data-original="#000000" class="active-path" data-old_color="#000000" fill="#FFFFFF"/><path d="m265.986 299.78v-42.688c0-5.523-4.477-10-10-10s-10 4.477-10 10v42.688c0 5.523 4.477 10 10 10s10-4.478 10-10z" data-original="#000000" class="active-path" data-old_color="#000000" fill="#FFFFFF"/><path d="m255.986 223.921c5.523 0 10-4.477 10-10v-.057c0-5.523-4.477-9.972-10-9.972s-10 4.505-10 10.028 4.477 10.001 10 10.001z" data-original="#000000" class="active-path" data-old_color="#000000" fill="#FFFFFF"/><path d="m255.986 20.004h.057c5.523 0 9.972-4.477 9.972-10s-4.505-10-10.028-10-10 4.477-10 10 4.476 10 9.999 10z" data-original="#000000" class="active-path" data-old_color="#000000" fill="#FFFFFF"/></g></g> </svg>
