<?xml version="1.0"?>
<svg xmlns="http://www.w3.org/2000/svg" id="Layer_1" enable-background="new 0 0 512 512" height="512px" viewBox="0 0 512 512" width="512px"><g><g><circle cx="111" cy="86.86" r="10" data-original="#000000" class="active-path" data-old_color="#000000" fill="#FFFFFF"/><path d="m407.07 30.54c-2.52-5.96-6.13-11.3-10.72-15.89-4.59-4.6-9.93-8.2-15.89-10.72-6.16-2.61-12.71-3.93-19.46-3.93h-210c-5.91 0-11.69 1.03-17.18 3.04-5.32 1.94-10.23 4.76-14.61 8.37-8.8 7.25-14.91 17.37-17.19 28.49-1.11 5.41 2.39 10.7 7.79 11.81.66.14 1.34.21 2.02.21 4.72 0 8.83-3.36 9.78-7.99 2.85-13.87 15.19-23.93 29.34-23.93h7.61l12.862 42.874c1.269 4.23 5.162 7.126 9.578 7.126h150c4.416 0 8.309-2.896 9.578-7.126l12.862-42.874h7.56c16.51.03 29.97 13.49 30 30v412c-.03 16.51-13.49 29.97-30 30h-210c-16.51-.03-29.97-13.49-30-30v-330.14c0-5.52-4.49-10-10-10s-10 4.48-10 10v330.14c0 6.75 1.32 13.3 3.93 19.46 2.52 5.96 6.12 11.3 10.72 15.89 4.59 4.6 9.93 8.2 15.89 10.72 6.16 2.61 12.71 3.93 19.46 3.93h210c6.75 0 13.3-1.32 19.46-3.93 5.96-2.52 11.3-6.12 15.89-10.72 4.59-4.59 8.2-9.93 10.72-15.89 2.61-6.16 3.93-12.71 3.93-19.46v-412c0-6.75-1.32-13.3-3.93-19.46zm-83.51 19.46h-135.12l-9-30h153.12z" data-original="#000000" class="active-path" data-old_color="#000000" fill="#FFFFFF"/><path d="m216 422c0 22.056 17.944 40 40 40s40-17.944 40-40-17.944-40-40-40-40 17.944-40 40zm60 0c0 11.028-8.972 20-20 20s-20-8.972-20-20 8.972-20 20-20 20 8.972 20 20z" data-original="#000000" class="active-path" data-old_color="#000000" fill="#FFFFFF"/><path d="m233.5 122.5h-75c-5.523 0-10 4.477-10 10v75c0 5.523 4.477 10 10 10h75c5.523 0 10-4.477 10-10v-75c0-5.523-4.477-10-10-10zm-10 75h-55v-55h55z" data-original="#000000" class="active-path" data-old_color="#000000" fill="#FFFFFF"/><path d="m278.5 217.5h75c5.523 0 10-4.477 10-10v-75c0-5.523-4.477-10-10-10h-75c-5.523 0-10 4.477-10 10v75c0 5.523 4.477 10 10 10zm10-75h55v55h-55z" data-original="#000000" class="active-path" data-old_color="#000000" fill="#FFFFFF"/><path d="m148.5 327.5c0 5.523 4.477 10 10 10h75c5.523 0 10-4.477 10-10v-75c0-5.523-4.477-10-10-10h-75c-5.523 0-10 4.477-10 10zm20-65h55v55h-55z" data-original="#000000" class="active-path" data-old_color="#000000" fill="#FFFFFF"/><path d="m268.5 327.5c0 5.523 4.477 10 10 10h75c5.523 0 10-4.477 10-10v-75c0-5.523-4.477-10-10-10h-75c-5.523 0-10 4.477-10 10zm20-65h55v55h-55z" data-original="#000000" class="active-path" data-old_color="#000000" fill="#FFFFFF"/></g></g> </svg>
