<?xml version="1.0"?>
<svg xmlns="http://www.w3.org/2000/svg" id="Capa_1" enable-background="new 0 0 511.993 511.993" height="512px" viewBox="0 0 511.993 511.993" width="512px"><g><g id="XMLID_1786_"><g id="XMLID_245_"><path id="XMLID_250_" d="m509.064 124.939-62.226-62.225c-3.904-3.905-10.237-3.904-14.142 0l-28.696 28.696v-25.65c0-5.523-4.477-10-10-10h-146.998c-5.523 0-10 4.477-10 10s4.477 10 10 10h136.998v35.65l-140.217 140.217c-.904.905-1.593 1.942-2.079 3.046l-46.215 105.087h-44.892c-2.652 0-5.196 1.054-7.071 2.929l-59.526 59.526v-52.455c0-5.522-4.477-10-10-10h-54v-284h137c5.523 0 10-4.477 10-10s-4.477-10-10-10h-147c-5.523 0-10 4.477-10 10v304c0 5.522 4.477 10 10 10h54v66.597c0 4.045 2.437 7.691 6.173 9.239 1.237.512 2.536.761 3.824.761 2.603 0 5.161-1.016 7.074-2.929l73.668-73.668h239.261c5.523 0 10-4.478 10-10v-125.614l105.064-105.064c1.875-1.875 2.929-4.419 2.929-7.071s-1.054-5.196-2.929-7.072zm-69.297-41.012 16.97 16.97-174.771 174.772-16.97-16.97zm-185.645 192.182 41.546 41.547-74.155 32.608zm129.878 83.651h-134.396l67.5-29.686c1.124-.495 2.161-1.194 3.046-2.079l63.85-63.85zm-70.921-52.979-16.97-16.97 174.771-174.771 16.971 16.97z" data-original="#000000" class="active-path" data-old_color="#000000" fill="#FFFFFF"/><path id="XMLID_831_" d="m314.333 133.76c0-5.523-4.477-10-10-10h-238.294c-5.523 0-10 4.477-10 10s4.477 10 10 10h238.294c5.523 0 10-4.478 10-10z" data-original="#000000" class="active-path" data-old_color="#000000" fill="#FFFFFF"/><path id="XMLID_832_" d="m260.854 189.76c0-5.523-4.477-10-10-10h-88.982c-5.523 0-10 4.477-10 10s4.477 10 10 10h88.982c5.523 0 10-4.478 10-10z" data-original="#000000" class="active-path" data-old_color="#000000" fill="#FFFFFF"/><path id="XMLID_833_" d="m66.039 199.76h39.833c5.523 0 10-4.477 10-10s-4.477-10-10-10h-39.833c-5.523 0-10 4.477-10 10s4.477 10 10 10z" data-original="#000000" class="active-path" data-old_color="#000000" fill="#FFFFFF"/><path id="XMLID_834_" d="m183 235.76h-116.961c-5.523 0-10 4.477-10 10s4.477 10 10 10h116.961c5.523 0 10-4.477 10-10s-4.477-10-10-10z" data-original="#000000" class="active-path" data-old_color="#000000" fill="#FFFFFF"/><path id="XMLID_835_" d="m183 291.76h-116.961c-5.523 0-10 4.478-10 10s4.477 10 10 10h116.961c5.523 0 10-4.478 10-10s-4.477-10-10-10z" data-original="#000000" class="active-path" data-old_color="#000000" fill="#FFFFFF"/><path id="XMLID_836_" d="m202 75.636c2.63 0 5.21-1.07 7.07-2.93s2.93-4.44 2.93-7.07-1.07-5.21-2.93-7.07-4.44-2.93-7.07-2.93-5.21 1.07-7.07 2.93-2.93 4.44-2.93 7.07 1.07 5.21 2.93 7.07 4.44 2.93 7.07 2.93z" data-original="#000000" class="active-path" data-old_color="#000000" fill="#FFFFFF"/></g></g></g> </svg>
